<svg id="visual" viewBox="0 0 900 600" width="900" height="600" xmlns="http://www.w3.org/2000/svg" xmlns:xlink="http://www.w3.org/1999/xlink" version="1.1"><rect x="0" y="0" width="900" height="600" fill="#140021"></rect><path d="M0 167L129 167L129 315L257 315L257 217L386 217L386 242L514 242L514 316L643 316L643 150L771 150L771 221L900 221L900 240L900 601L900 601L771 601L771 601L643 601L643 601L514 601L514 601L386 601L386 601L257 601L257 601L129 601L129 601L0 601Z" fill="#9900ff"></path><path d="M0 426L129 426L129 385L257 385L257 421L386 421L386 344L514 344L514 342L643 342L643 367L771 367L771 372L900 372L900 318L900 601L900 601L771 601L771 601L643 601L643 601L514 601L514 601L386 601L386 601L257 601L257 601L129 601L129 601L0 601Z" fill="#7700c6"></path><path d="M0 398L129 398L129 494L257 494L257 526L386 526L386 445L514 445L514 402L643 402L643 451L771 451L771 416L900 416L900 526L900 601L900 601L771 601L771 601L643 601L643 601L514 601L514 601L386 601L386 601L257 601L257 601L129 601L129 601L0 601Z" fill="#560090"></path></svg>